<svg width="32" height="32" viewBox="0 0 32 32" xmlns="http://www.w3.org/2000/svg"><g fill="none"><circle fill="#201A2D" cx="16" cy="16" r="16"/><circle fill="#F7931A" cx="16" cy="16" r="10"/><path fill="#FFF" d="M18.4 14.2c.3-1.7-1-2.6-2.8-3.2l.6-2.3-1.4-.3-.5 2.2c-.4-.1-.7-.2-1.1-.3l.6-2.2-1.4-.3-.6 2.3c-.3-.1-.6-.1-.9-.2l-1.9-.5-.4 1.5s1 .2 1 .3c.6.1.7.5.6.8l-.6 2.6c0 0 .1 0 .2.1h-.2l-.9 3.6c-.1.2-.3.5-.7.4 0 0-1-.2-1-.2l-.7 1.6 1.8.4c.3.1.7.2 1 .3l-.6 2.3 1.4.3.6-2.3c.4.1.7.2 1.1.3l-.6 2.3 1.4.3.6-2.3c2.4.5 4.2.2 5-1.9.6-1.7 0-2.6-1.3-3.3.9-.2 1.6-.8 1.8-2zm-3.2 4.5c-.4 1.7-3.3.8-4.2.5l.8-3c.9.2 3.9.7 3.4 2.5zm.4-4.5c-.4 1.5-2.7.8-3.5.6l.7-2.7c.8.2 3.2.6 2.8 2.1z"/></g></svg>
